# xmcd CD database file
#
# Track frame offsets:
#	150
#	4792
#	23185
#	45200
#	81575
#	108577
#	125735
#	130815
#
# Disc length: 2033 seconds
#
# Revision: 0
# Processed by: cddbd v1.5.1PL0 Copyright (c) Steve Scherf et al.
# Submitted via: CDex 1.51
#
DISCID=6307ef08
DTITLE=LUV and SOUL - Why I cry 〜Antique Memory〜
DYEAR=2004
DGENRE=R&B
TTITLE0=PROLOGUE
TTITLE1=千億の虹をこえて (Fairy tale)
TTITLE2=Why I cry
TTITLE3=Antique Memory
TTITLE4=Friends
TTITLE5=約束のうた
TTITLE6=EPILOGUE
TTITLE7=Why I cry (Continent Mix)
EXTD=YEAR: 2004
EXTT0=
EXTT1=
EXTT2=
EXTT3=
EXTT4=
EXTT5=
EXTT6=
EXTT7=
PLAYORDER=
